<mxfile host="app.diagrams.net" modified="2023-05-25T11:08:51.267Z" agent="Mozilla/5.0 (Windows NT 10.0; Win64; x64) AppleWebKit/537.36 (KHTML, like Gecko) Chrome/113.0.0.0 Safari/537.36" etag="o2yqdXredt1VTdBvPwtD" version="21.3.3" type="github">
  <diagram name="Page-1" id="8bYPDBFf9vM7yHo1ai8J">
    <mxGraphModel dx="1687" dy="927" grid="1" gridSize="10" guides="1" tooltips="1" connect="1" arrows="1" fold="1" page="1" pageScale="1" pageWidth="850" pageHeight="1100" math="0" shadow="0">
      <root>
        <mxCell id="0" />
        <mxCell id="1" parent="0" />
        <mxCell id="wSVqXRFub9iAn6hktArB-3" value="" style="edgeStyle=orthogonalEdgeStyle;rounded=0;orthogonalLoop=1;jettySize=auto;html=1;" edge="1" parent="1" source="wSVqXRFub9iAn6hktArB-1" target="wSVqXRFub9iAn6hktArB-2">
          <mxGeometry relative="1" as="geometry" />
        </mxCell>
        <mxCell id="wSVqXRFub9iAn6hktArB-1" value="Start" style="rounded=1;whiteSpace=wrap;html=1;" vertex="1" parent="1">
          <mxGeometry x="80" y="30" width="120" height="60" as="geometry" />
        </mxCell>
        <mxCell id="wSVqXRFub9iAn6hktArB-5" value="" style="edgeStyle=orthogonalEdgeStyle;rounded=0;orthogonalLoop=1;jettySize=auto;html=1;" edge="1" parent="1" source="wSVqXRFub9iAn6hktArB-10" target="wSVqXRFub9iAn6hktArB-4">
          <mxGeometry relative="1" as="geometry" />
        </mxCell>
        <mxCell id="wSVqXRFub9iAn6hktArB-2" value="define filename variable" style="whiteSpace=wrap;html=1;rounded=1;" vertex="1" parent="1">
          <mxGeometry x="80" y="170" width="120" height="60" as="geometry" />
        </mxCell>
        <mxCell id="wSVqXRFub9iAn6hktArB-7" value="" style="edgeStyle=orthogonalEdgeStyle;rounded=0;orthogonalLoop=1;jettySize=auto;html=1;" edge="1" parent="1" source="wSVqXRFub9iAn6hktArB-4" target="wSVqXRFub9iAn6hktArB-6">
          <mxGeometry relative="1" as="geometry" />
        </mxCell>
        <mxCell id="wSVqXRFub9iAn6hktArB-9" value="" style="edgeStyle=orthogonalEdgeStyle;rounded=0;orthogonalLoop=1;jettySize=auto;html=1;" edge="1" parent="1" source="wSVqXRFub9iAn6hktArB-4" target="wSVqXRFub9iAn6hktArB-8">
          <mxGeometry relative="1" as="geometry" />
        </mxCell>
        <mxCell id="wSVqXRFub9iAn6hktArB-4" value="Does name equal quit&amp;nbsp;" style="rhombus;whiteSpace=wrap;html=1;rounded=1;" vertex="1" parent="1">
          <mxGeometry x="60" y="440" width="160" height="120" as="geometry" />
        </mxCell>
        <mxCell id="wSVqXRFub9iAn6hktArB-6" value="quit" style="whiteSpace=wrap;html=1;rounded=1;" vertex="1" parent="1">
          <mxGeometry x="260" y="470" width="120" height="60" as="geometry" />
        </mxCell>
        <mxCell id="wSVqXRFub9iAn6hktArB-13" value="" style="edgeStyle=orthogonalEdgeStyle;rounded=0;orthogonalLoop=1;jettySize=auto;html=1;" edge="1" parent="1" source="wSVqXRFub9iAn6hktArB-8" target="wSVqXRFub9iAn6hktArB-12">
          <mxGeometry relative="1" as="geometry" />
        </mxCell>
        <mxCell id="wSVqXRFub9iAn6hktArB-8" value="input patient&lt;br&gt;address" style="shape=parallelogram;perimeter=parallelogramPerimeter;whiteSpace=wrap;html=1;fixedSize=1;rounded=1;" vertex="1" parent="1">
          <mxGeometry x="80" y="670" width="120" height="60" as="geometry" />
        </mxCell>
        <mxCell id="wSVqXRFub9iAn6hktArB-11" value="" style="edgeStyle=orthogonalEdgeStyle;rounded=0;orthogonalLoop=1;jettySize=auto;html=1;" edge="1" parent="1" source="wSVqXRFub9iAn6hktArB-2" target="wSVqXRFub9iAn6hktArB-10">
          <mxGeometry relative="1" as="geometry">
            <mxPoint x="140" y="230" as="sourcePoint" />
            <mxPoint x="140" y="440" as="targetPoint" />
          </mxGeometry>
        </mxCell>
        <mxCell id="wSVqXRFub9iAn6hktArB-10" value="input patient name" style="shape=parallelogram;perimeter=parallelogramPerimeter;whiteSpace=wrap;html=1;fixedSize=1;rounded=1;" vertex="1" parent="1">
          <mxGeometry x="80" y="300" width="120" height="60" as="geometry" />
        </mxCell>
        <mxCell id="wSVqXRFub9iAn6hktArB-12" value="input patient&amp;nbsp;&lt;br&gt;birth_year" style="shape=parallelogram;perimeter=parallelogramPerimeter;whiteSpace=wrap;html=1;fixedSize=1;rounded=1;" vertex="1" parent="1">
          <mxGeometry x="80" y="810" width="120" height="60" as="geometry" />
        </mxCell>
        <mxCell id="wSVqXRFub9iAn6hktArB-14" value="" style="swimlane;fontStyle=0;childLayout=stackLayout;horizontal=1;startSize=20;horizontalStack=0;resizeParent=1;resizeParentMax=0;resizeLast=0;collapsible=1;marginBottom=0;whiteSpace=wrap;html=1;" vertex="1" parent="1">
          <mxGeometry x="70" y="900" width="140" height="50" as="geometry" />
        </mxCell>
        <mxCell id="wSVqXRFub9iAn6hktArB-15" value="add_to_csv()" style="text;strokeColor=none;fillColor=none;align=left;verticalAlign=middle;spacingLeft=4;spacingRight=4;overflow=hidden;points=[[0,0.5],[1,0.5]];portConstraint=eastwest;rotatable=0;whiteSpace=wrap;html=1;" vertex="1" parent="wSVqXRFub9iAn6hktArB-14">
          <mxGeometry y="20" width="140" height="30" as="geometry" />
        </mxCell>
        <mxCell id="wSVqXRFub9iAn6hktArB-18" value="" style="swimlane;fontStyle=0;childLayout=stackLayout;horizontal=1;startSize=20;horizontalStack=0;resizeParent=1;resizeParentMax=0;resizeLast=0;collapsible=1;marginBottom=0;whiteSpace=wrap;html=1;" vertex="1" parent="1">
          <mxGeometry x="70" y="990" width="140" height="50" as="geometry" />
        </mxCell>
        <mxCell id="wSVqXRFub9iAn6hktArB-19" value="created_sorted_csv()" style="text;strokeColor=none;fillColor=none;align=left;verticalAlign=middle;spacingLeft=4;spacingRight=4;overflow=hidden;points=[[0,0.5],[1,0.5]];portConstraint=eastwest;rotatable=0;whiteSpace=wrap;html=1;" vertex="1" parent="wSVqXRFub9iAn6hktArB-18">
          <mxGeometry y="20" width="140" height="30" as="geometry" />
        </mxCell>
        <mxCell id="wSVqXRFub9iAn6hktArB-22" value="" style="edgeStyle=orthogonalEdgeStyle;rounded=0;orthogonalLoop=1;jettySize=auto;html=1;" edge="1" parent="1" source="wSVqXRFub9iAn6hktArB-20" target="wSVqXRFub9iAn6hktArB-21">
          <mxGeometry relative="1" as="geometry" />
        </mxCell>
        <mxCell id="wSVqXRFub9iAn6hktArB-20" value="add_to_csv" style="rounded=1;whiteSpace=wrap;html=1;" vertex="1" parent="1">
          <mxGeometry x="380" y="30" width="120" height="60" as="geometry" />
        </mxCell>
        <mxCell id="wSVqXRFub9iAn6hktArB-21" value="append csv,&lt;br&gt;write row[name, address, birth_year" style="whiteSpace=wrap;html=1;rounded=1;" vertex="1" parent="1">
          <mxGeometry x="380" y="170" width="120" height="60" as="geometry" />
        </mxCell>
        <mxCell id="wSVqXRFub9iAn6hktArB-23" value="" style="edgeStyle=orthogonalEdgeStyle;rounded=0;orthogonalLoop=1;jettySize=auto;html=1;" edge="1" parent="1" source="wSVqXRFub9iAn6hktArB-24" target="wSVqXRFub9iAn6hktArB-25">
          <mxGeometry relative="1" as="geometry" />
        </mxCell>
        <mxCell id="wSVqXRFub9iAn6hktArB-24" value="create_sorted_csv" style="rounded=1;whiteSpace=wrap;html=1;" vertex="1" parent="1">
          <mxGeometry x="620" y="30" width="120" height="60" as="geometry" />
        </mxCell>
        <mxCell id="wSVqXRFub9iAn6hktArB-27" value="" style="edgeStyle=orthogonalEdgeStyle;rounded=0;orthogonalLoop=1;jettySize=auto;html=1;" edge="1" parent="1" source="wSVqXRFub9iAn6hktArB-25" target="wSVqXRFub9iAn6hktArB-26">
          <mxGeometry relative="1" as="geometry" />
        </mxCell>
        <mxCell id="wSVqXRFub9iAn6hktArB-25" value="read csv,&lt;br&gt;create sorted data variable" style="whiteSpace=wrap;html=1;rounded=1;" vertex="1" parent="1">
          <mxGeometry x="620" y="170" width="120" height="60" as="geometry" />
        </mxCell>
        <mxCell id="wSVqXRFub9iAn6hktArB-29" value="" style="edgeStyle=orthogonalEdgeStyle;rounded=0;orthogonalLoop=1;jettySize=auto;html=1;" edge="1" parent="1" source="wSVqXRFub9iAn6hktArB-26" target="wSVqXRFub9iAn6hktArB-28">
          <mxGeometry relative="1" as="geometry" />
        </mxCell>
        <mxCell id="wSVqXRFub9iAn6hktArB-26" value="sorted data = by integer" style="whiteSpace=wrap;html=1;rounded=1;" vertex="1" parent="1">
          <mxGeometry x="620" y="310" width="120" height="60" as="geometry" />
        </mxCell>
        <mxCell id="wSVqXRFub9iAn6hktArB-28" value="open csv in write mode, write data to csv using previously defined variables" style="whiteSpace=wrap;html=1;rounded=1;" vertex="1" parent="1">
          <mxGeometry x="620" y="450" width="120" height="60" as="geometry" />
        </mxCell>
        <mxCell id="wSVqXRFub9iAn6hktArB-30" style="edgeStyle=orthogonalEdgeStyle;rounded=0;orthogonalLoop=1;jettySize=auto;html=1;" edge="1" parent="1">
          <mxGeometry relative="1" as="geometry">
            <mxPoint x="70" y="1020" as="sourcePoint" />
            <mxPoint x="90" y="330" as="targetPoint" />
            <Array as="points">
              <mxPoint x="30" y="1025" />
              <mxPoint x="30" y="330" />
            </Array>
          </mxGeometry>
        </mxCell>
      </root>
    </mxGraphModel>
  </diagram>
</mxfile>
